<svg width="530" height="409" viewBox="0 0 530 409" fill="none" xmlns="http://www.w3.org/2000/svg">
<path d="M425.701 194.544C425.701 266.527 367.205 324.883 295.045 324.883C222.886 324.883 164.388 266.527 164.388 194.544C164.388 122.559 222.886 64.2033 295.045 64.2033C367.205 64.2033 425.701 122.559 425.701 194.544Z" fill="#FF6F00"/>
<path fill-rule="evenodd" clip-rule="evenodd" d="M156.51 239.187V158.479L418.113 158.479H418.811V239.187H418.113L156.51 239.187ZM157.208 238.492L418.114 238.492V159.173L157.208 159.173V238.492Z" fill="#F5EBEB"/>
<path d="M418.114 238.492H420.78V241.158H418.114V238.492ZM157.208 238.492V241.158H154.541V238.492H157.208ZM157.208 159.173H154.541V156.506H157.208V159.173ZM418.114 159.173V156.506H420.78V159.173H418.114ZM156.51 158.479H153.844V155.812H156.51V158.479ZM156.51 239.187V241.853H153.844V239.187H156.51ZM418.811 239.187H421.478V241.853H418.811V239.187ZM418.811 158.479V155.812H421.478V158.479H418.811ZM418.114 241.158L157.208 241.158V235.825L418.114 235.825V241.158ZM154.541 238.492V159.173H159.875V238.492H154.541ZM157.208 156.506L418.114 156.506V161.839L157.208 161.839V156.506ZM420.78 159.173V238.492H415.447V159.173H420.78ZM159.177 158.479V239.187H153.844V158.479H159.177ZM156.51 236.52L418.113 236.52V241.853L156.51 241.853V236.52ZM418.113 236.52H418.811V241.853H418.113V236.52ZM416.144 239.187V158.479H421.478V239.187H416.144ZM418.811 161.145H418.113V155.812H418.811V161.145ZM418.113 161.145L156.51 161.145V155.812L418.113 155.812V161.145Z" fill="#4E4C4F"/>
<path fill-rule="evenodd" clip-rule="evenodd" d="M427.294 287.378L147.313 287.378L147.313 140.382L427.294 140.382V287.378ZM312.292 270.013V276.285V281.861H285.304H283.911H256.923V276.285V270.013V245.272L312.292 245.272V270.013ZM419.015 240.103H417.622L155.683 240.103L155.683 157.756L417.622 157.756H419.015V240.103Z" fill="#E6E6E6"/>
<path d="M419.015 240.103H421.682V242.77H419.015V240.103ZM155.683 240.103V242.77H153.016V240.103H155.683ZM155.683 157.756H153.016V155.089H155.683V157.756ZM419.015 157.756V155.089H421.682V157.756H419.015ZM312.292 281.861H314.958V284.528H312.292V281.861ZM256.923 281.861V284.528H254.256V281.861H256.923ZM256.923 245.272H254.256V242.605H256.923V245.272ZM312.292 245.272V242.605H314.958V245.272H312.292ZM147.313 287.378V290.045H144.646V287.378H147.313ZM427.294 287.378H429.961V290.045H427.294V287.378ZM427.294 140.382V137.716H429.961V140.382H427.294ZM147.313 140.382H144.646V137.716H147.313V140.382ZM419.015 242.77H417.622V237.437H419.015V242.77ZM417.622 242.77L155.683 242.77V237.437L417.622 237.437V242.77ZM153.016 240.103L153.016 157.756H158.35L158.35 240.103H153.016ZM155.683 155.089L417.622 155.089V160.422L155.683 160.422V155.089ZM417.622 155.089H419.015V160.422H417.622V155.089ZM421.682 157.756V240.103H416.349V157.756H421.682ZM314.958 270.013V276.285H309.625V270.013H314.958ZM314.958 276.285V281.861H309.625V276.285H314.958ZM312.292 284.528H285.304V279.195H312.292V284.528ZM285.304 284.528H283.911V279.195H285.304V284.528ZM283.911 284.528H256.923V279.195L283.911 279.195V284.528ZM254.256 281.861V276.285H259.589V281.861H254.256ZM254.256 276.285V270.013H259.589V276.285H254.256ZM254.256 270.013V245.272H259.589V270.013H254.256ZM256.923 242.605L312.292 242.605V247.939L256.923 247.939V242.605ZM314.958 245.272V270.013H309.625V245.272H314.958ZM147.313 284.712L427.294 284.712V290.045L147.313 290.045V284.712ZM424.628 287.378V140.382H429.961V287.378H424.628ZM427.294 143.049L147.313 143.049V137.716L427.294 137.716V143.049ZM149.979 140.382L149.979 287.378H144.646L144.646 140.382H149.979Z" fill="#4E4C4F"/>
<path fill-rule="evenodd" clip-rule="evenodd" d="M417.827 238.695L157.002 238.695V158.971L417.827 158.971V238.695ZM175.615 218.481H162.276V231.84H175.615V218.481ZM175.615 200.798H162.276V214.158H175.615V200.798ZM162.276 183.51H175.615V196.869H162.276V183.51ZM175.615 165.433H162.276V178.793H175.615V165.433ZM181.107 218.481H194.444V231.84H181.107V218.481ZM194.444 200.798H181.107V214.158H194.444V200.798ZM181.107 183.51H194.444V196.869H181.107V183.51ZM194.444 165.433H181.107V178.793H194.444V165.433ZM199.152 218.481L302.715 218.481V231.84L199.152 231.84V218.481ZM212.489 200.798H199.152V214.158H212.489V200.798ZM199.152 183.51H212.489V196.869H199.152V183.51ZM212.489 165.433H199.152V178.793H212.489V165.433ZM217.197 200.798H230.534V214.158H217.197V200.798ZM230.534 183.51H217.197V196.869H230.534V183.51ZM217.197 165.433H230.534V178.793H217.197V165.433ZM248.58 200.798H235.242V214.158H248.58V200.798ZM235.242 183.51H248.58V196.869H235.242V183.51ZM248.58 165.433H235.242V178.793H248.58V165.433ZM253.287 200.798H266.624V214.158H253.287V200.798ZM266.624 183.51H253.287V196.869H266.624V183.51ZM253.287 165.433H266.624V178.793H253.287V165.433ZM284.67 200.798H271.333V214.158H284.67V200.798ZM271.333 183.51H284.67V196.869H271.333V183.51ZM284.67 165.433H271.333V178.793H284.67V165.433ZM289.377 200.798L302.716 200.798V214.158H289.377V200.798ZM302.716 183.51L289.377 183.51V196.869L302.716 196.869V183.51ZM289.377 165.433H302.716V178.793L289.377 178.793V165.433ZM320.759 218.481H307.424V231.84H320.759V218.481ZM307.424 200.798H320.759V214.158H307.424V200.798ZM320.759 183.51H307.424V196.869H320.759V183.51ZM307.424 165.433H320.759V178.793H307.424V165.433ZM338.805 218.481H325.468V231.84H338.805V218.481ZM325.468 200.798H338.805V214.158H325.468V200.798ZM338.805 183.51H325.468V196.869H338.805V183.51ZM325.468 165.433L338.805 165.433V178.793H325.468V165.433ZM356.85 218.481H343.515V231.84H356.85V218.481ZM343.515 200.798H356.85V214.158H343.515V200.798ZM356.85 183.51H343.515V196.869H356.85V183.51ZM343.515 165.433H356.85V178.793H343.515V165.433ZM374.896 200.798H361.561V214.158H374.896V200.798ZM361.561 183.51H374.896V196.869H361.561V183.51ZM374.896 165.433H361.561V178.793H374.896V165.433ZM379.605 200.798H392.942V214.158H379.605V200.798ZM392.942 183.51H379.605V196.869H392.942V183.51ZM379.605 165.433H392.942V178.793H379.605V165.433ZM361.562 231.84H392.945V218.481H361.562V231.84ZM397.652 200.798H410.988V214.158H397.652V200.798ZM410.988 183.51H397.652V196.869H410.988V183.51ZM397.652 165.433H410.988V178.793H397.652V165.433Z" fill="#E0D8D3"/>
<path d="M157.002 238.695V241.361H154.336V238.695H157.002ZM417.827 238.695H420.493V241.361H417.827V238.695ZM157.002 158.971H154.336V156.304H157.002V158.971ZM417.827 158.971V156.304H420.493V158.971H417.827ZM162.276 218.481H159.61V215.814H162.276V218.481ZM175.615 218.481V215.814H178.281V218.481H175.615ZM162.276 231.84V234.506H159.61V231.84H162.276ZM175.615 231.84H178.281V234.506H175.615V231.84ZM162.276 200.798H159.61V198.131H162.276V200.798ZM175.615 200.798V198.131H178.281V200.798H175.615ZM162.276 214.158V216.825H159.61V214.158H162.276ZM175.615 214.158H178.281V216.825H175.615V214.158ZM175.615 183.51V180.843H178.281V183.51H175.615ZM162.276 183.51H159.61V180.843H162.276V183.51ZM175.615 196.869H178.281V199.535H175.615V196.869ZM162.276 196.869V199.535H159.61V196.869H162.276ZM162.276 165.433H159.61V162.766H162.276V165.433ZM175.615 165.433V162.766H178.281V165.433H175.615ZM162.276 178.793V181.46H159.61V178.793H162.276ZM175.615 178.793H178.281V181.46H175.615V178.793ZM194.444 218.481V215.814H197.11V218.481H194.444ZM181.107 218.481H178.44V215.814H181.107V218.481ZM194.444 231.84H197.11V234.506H194.444V231.84ZM181.107 231.84V234.506H178.44V231.84H181.107ZM181.107 200.798H178.44V198.131H181.107V200.798ZM194.444 200.798V198.131H197.11V200.798H194.444ZM181.107 214.158V216.825H178.44V214.158H181.107ZM194.444 214.158H197.11V216.825H194.444V214.158ZM194.444 183.51V180.843H197.11V183.51H194.444ZM181.107 183.51H178.44V180.843H181.107V183.51ZM194.444 196.869H197.11V199.535H194.444V196.869ZM181.107 196.869V199.535H178.44V196.869H181.107ZM181.107 165.433H178.44V162.766H181.107V165.433ZM194.444 165.433V162.766H197.11V165.433H194.444ZM181.107 178.793V181.46H178.44V178.793H181.107ZM194.444 178.793H197.11V181.46H194.444V178.793ZM302.715 218.481V215.814H305.382V218.481H302.715ZM199.152 218.481H196.485V215.814H199.152V218.481ZM302.715 231.84H305.382V234.506H302.715V231.84ZM199.152 231.84V234.506H196.485V231.84H199.152ZM199.152 200.798H196.485V198.131H199.152V200.798ZM212.489 200.798V198.131H215.155V200.798H212.489ZM199.152 214.158V216.825H196.485V214.158H199.152ZM212.489 214.158H215.155V216.825H212.489V214.158ZM212.489 183.51V180.843H215.155V183.51H212.489ZM199.152 183.51H196.485V180.843H199.152V183.51ZM212.489 196.869H215.155V199.535H212.489V196.869ZM199.152 196.869V199.535H196.485V196.869H199.152ZM199.152 165.433H196.485V162.766H199.152V165.433ZM212.489 165.433V162.766H215.155V165.433H212.489ZM199.152 178.793V181.46H196.485V178.793H199.152ZM212.489 178.793H215.155V181.46H212.489V178.793ZM230.534 200.798V198.131H233.201V200.798H230.534ZM217.197 200.798H214.531V198.131H217.197V200.798ZM230.534 214.158H233.201V216.825H230.534V214.158ZM217.197 214.158V216.825H214.531V214.158H217.197ZM217.197 183.51H214.531V180.843H217.197V183.51ZM230.534 183.51V180.843H233.201V183.51H230.534ZM217.197 196.869V199.535H214.531V196.869H217.197ZM230.534 196.869H233.201V199.535H230.534V196.869ZM230.534 165.433V162.766H233.201V165.433H230.534ZM217.197 165.433H214.531V162.766H217.197V165.433ZM230.534 178.793H233.201V181.46H230.534V178.793ZM217.197 178.793V181.46H214.531V178.793H217.197ZM235.242 200.798H232.575V198.131H235.242V200.798ZM248.58 200.798V198.131H251.247V200.798H248.58ZM235.242 214.158V216.825H232.575V214.158H235.242ZM248.58 214.158H251.247V216.825H248.58V214.158ZM248.58 183.51V180.843H251.247V183.51H248.58ZM235.242 183.51H232.575V180.843H235.242V183.51ZM248.58 196.869H251.247V199.535H248.58V196.869ZM235.242 196.869V199.535H232.575V196.869H235.242ZM235.242 165.433H232.575V162.766H235.242V165.433ZM248.58 165.433V162.766H251.247V165.433H248.58ZM235.242 178.793V181.46H232.575V178.793H235.242ZM248.58 178.793H251.247V181.46H248.58V178.793ZM266.624 200.798V198.131H269.29V200.798H266.624ZM253.287 200.798H250.62V198.131H253.287V200.798ZM266.624 214.158H269.29V216.825H266.624V214.158ZM253.287 214.158V216.825H250.62V214.158H253.287ZM253.287 183.51H250.62V180.843H253.287V183.51ZM266.624 183.51V180.843H269.29V183.51H266.624ZM253.287 196.869V199.535H250.62V196.869H253.287ZM266.624 196.869H269.29V199.535H266.624V196.869ZM266.624 165.433V162.766H269.29V165.433H266.624ZM253.287 165.433H250.62V162.766H253.287V165.433ZM266.624 178.793H269.29V181.46H266.624V178.793ZM253.287 178.793V181.46H250.62V178.793H253.287ZM271.333 200.798H268.666V198.131H271.333V200.798ZM284.67 200.798V198.131H287.337V200.798H284.67ZM271.333 214.158V216.825H268.666V214.158H271.333ZM284.67 214.158H287.337V216.825H284.67V214.158ZM284.67 183.51V180.843H287.337V183.51H284.67ZM271.333 183.51H268.666V180.843H271.333V183.51ZM284.67 196.869H287.337V199.535H284.67V196.869ZM271.333 196.869V199.535H268.666V196.869H271.333ZM271.333 165.433H268.666V162.766H271.333V165.433ZM284.67 165.433V162.766H287.337V165.433H284.67ZM271.333 178.793V181.46H268.666V178.793H271.333ZM284.67 178.793H287.337V181.46H284.67V178.793ZM302.716 200.798V198.131H305.383V200.798H302.716ZM289.377 200.798H286.711V198.131H289.377V200.798ZM302.716 214.158H305.383V216.825H302.716V214.158ZM289.377 214.158V216.825L286.711 216.825V214.158L289.377 214.158ZM289.377 183.51H286.711V180.843H289.377V183.51ZM302.716 183.51V180.843H305.383V183.51H302.716ZM289.377 196.869V199.535H286.711V196.869H289.377ZM302.716 196.869H305.383V199.535H302.716V196.869ZM302.716 165.433V162.766H305.383V165.433H302.716ZM289.377 165.433H286.711V162.766H289.377V165.433ZM302.716 178.793H305.383V181.46H302.716V178.793ZM289.377 178.793V181.46H286.711V178.793H289.377ZM307.424 218.481H304.758V215.814H307.424V218.481ZM320.759 218.481V215.814H323.425V218.481H320.759ZM307.424 231.84V234.506H304.758V231.84H307.424ZM320.759 231.84H323.425V234.506H320.759V231.84ZM320.759 200.798V198.131H323.425V200.798H320.759ZM307.424 200.798H304.758V198.131H307.424V200.798ZM320.759 214.158H323.425V216.825H320.759V214.158ZM307.424 214.158V216.825H304.758V214.158H307.424ZM307.424 183.51H304.758V180.843H307.424V183.51ZM320.759 183.51V180.843H323.425V183.51H320.759ZM307.424 196.869V199.535H304.758V196.869H307.424ZM320.759 196.869H323.425V199.535H320.759V196.869ZM320.759 165.433V162.766H323.425V165.433H320.759ZM307.424 165.433H304.758V162.766H307.424V165.433ZM320.759 178.793H323.425V181.46H320.759V178.793ZM307.424 178.793V181.46H304.758V178.793H307.424ZM325.468 218.481H322.801V215.814H325.468V218.481ZM338.805 218.481V215.814H341.471V218.481H338.805ZM325.468 231.84V234.506H322.801V231.84H325.468ZM338.805 231.84H341.471V234.506H338.805V231.84ZM338.805 200.798V198.131H341.471V200.798H338.805ZM325.468 200.798H322.801V198.131H325.468V200.798ZM338.805 214.158H341.471V216.825H338.805V214.158ZM325.468 214.158V216.825H322.801V214.158H325.468ZM325.468 183.51H322.801V180.843H325.468V183.51ZM338.805 183.51V180.843H341.471V183.51H338.805ZM325.468 196.869V199.535H322.801V196.869H325.468ZM338.805 196.869H341.471V199.535H338.805V196.869ZM338.805 165.433V162.766H341.471V165.433H338.805ZM325.468 165.433H322.801V162.766H325.468V165.433ZM338.805 178.793H341.471V181.46H338.805V178.793ZM325.468 178.793V181.46H322.801V178.793H325.468ZM343.515 218.481H340.848V215.814H343.515V218.481ZM356.85 218.481V215.814H359.517V218.481H356.85ZM343.515 231.84V234.506H340.848V231.84H343.515ZM356.85 231.84H359.517V234.506H356.85V231.84ZM356.85 200.798V198.131H359.517V200.798H356.85ZM343.515 200.798H340.848V198.131H343.515V200.798ZM356.85 214.158H359.517V216.825H356.85V214.158ZM343.515 214.158V216.825H340.848V214.158H343.515ZM343.515 183.51H340.848V180.843H343.515V183.51ZM356.85 183.51V180.843H359.517V183.51H356.85ZM343.515 196.869V199.535H340.848V196.869H343.515ZM356.85 196.869H359.517V199.535H356.85V196.869ZM356.85 165.433V162.766H359.517V165.433H356.85ZM343.515 165.433H340.848V162.766H343.515V165.433ZM356.85 178.793H359.517V181.46H356.85V178.793ZM343.515 178.793V181.46H340.848V178.793H343.515ZM361.561 200.798H358.894V198.131H361.561V200.798ZM374.896 200.798V198.131H377.563V200.798H374.896ZM361.561 214.158V216.825H358.894V214.158H361.561ZM374.896 214.158H377.563V216.825H374.896V214.158ZM374.896 183.51V180.843H377.563V183.51H374.896ZM361.561 183.51H358.894V180.843H361.561V183.51ZM374.896 196.869H377.563V199.535H374.896V196.869ZM361.561 196.869V199.535H358.894V196.869H361.561ZM361.561 165.433H358.894V162.766H361.561V165.433ZM374.896 165.433V162.766H377.563V165.433H374.896ZM361.561 178.793V181.46H358.894V178.793H361.561ZM374.896 178.793H377.563V181.46H374.896V178.793ZM392.942 200.798V198.131H395.609V200.798H392.942ZM379.605 200.798H376.939V198.131H379.605V200.798ZM392.942 214.158H395.609V216.825H392.942V214.158ZM379.605 214.158V216.825H376.939V214.158H379.605ZM379.605 183.51H376.939V180.843H379.605V183.51ZM392.942 183.51V180.843H395.609V183.51H392.942ZM379.605 196.869V199.535H376.939V196.869H379.605ZM392.942 196.869H395.609V199.535H392.942V196.869ZM392.942 165.433V162.766H395.609V165.433H392.942ZM379.605 165.433H376.939V162.766H379.605V165.433ZM392.942 178.793H395.609V181.46H392.942V178.793ZM379.605 178.793V181.46H376.939V178.793H379.605ZM392.945 231.84H395.611V234.506H392.945V231.84ZM361.562 231.84V234.506H358.895V231.84H361.562ZM392.945 218.481V215.814H395.611V218.481H392.945ZM361.562 218.481H358.895V215.814H361.562V218.481ZM410.988 200.798V198.131H413.655V200.798H410.988ZM397.652 200.798H394.986V198.131H397.652V200.798ZM410.988 214.158H413.655V216.825H410.988V214.158ZM397.652 214.158V216.825H394.986V214.158H397.652ZM397.652 183.51H394.986V180.843H397.652V183.51ZM410.988 183.51V180.843H413.655V183.51H410.988ZM397.652 196.869V199.535H394.986V196.869H397.652ZM410.988 196.869H413.655V199.535H410.988V196.869ZM410.988 165.433V162.766H413.655V165.433H410.988ZM397.652 165.433H394.986V162.766H397.652V165.433ZM410.988 178.793H413.655V181.46H410.988V178.793ZM397.652 178.793V181.46H394.986V178.793H397.652ZM157.002 236.028L417.827 236.028V241.361L157.002 241.361V236.028ZM159.669 158.971V238.695H154.336V158.971H159.669ZM417.827 161.638L157.002 161.638V156.304L417.827 156.304V161.638ZM415.16 238.695V158.971H420.493V238.695H415.16ZM162.276 215.814H175.615V221.148H162.276V215.814ZM159.61 231.84V218.481H164.943V231.84H159.61ZM175.615 234.506H162.276V229.173H175.615V234.506ZM178.281 218.481V231.84H172.948V218.481H178.281ZM162.276 198.131H175.615V203.464H162.276V198.131ZM159.61 214.158V200.798H164.943V214.158H159.61ZM175.615 216.825H162.276V211.492H175.615V216.825ZM178.281 200.798V214.158H172.948V200.798H178.281ZM175.615 186.176H162.276V180.843H175.615V186.176ZM172.948 196.869V183.51H178.281V196.869H172.948ZM162.276 194.202H175.615V199.535H162.276V194.202ZM164.943 183.51V196.869H159.61V183.51H164.943ZM162.276 162.766H175.615V168.099H162.276V162.766ZM159.61 178.793V165.433H164.943V178.793H159.61ZM175.615 181.46H162.276V176.127H175.615V181.46ZM178.281 165.433V178.793H172.948V165.433H178.281ZM194.444 221.148H181.107V215.814H194.444V221.148ZM191.777 231.84V218.481H197.11V231.84H191.777ZM181.107 229.173H194.444V234.506H181.107V229.173ZM183.773 218.481V231.84H178.44V218.481H183.773ZM181.107 198.131H194.444V203.464H181.107V198.131ZM178.44 214.158V200.798H183.773V214.158H178.44ZM194.444 216.825H181.107V211.492H194.444V216.825ZM197.11 200.798V214.158H191.777V200.798H197.11ZM194.444 186.176H181.107V180.843H194.444V186.176ZM191.777 196.869V183.51H197.11V196.869H191.777ZM181.107 194.202H194.444V199.535H181.107V194.202ZM183.773 183.51V196.869H178.44V183.51H183.773ZM181.107 162.766H194.444V168.099H181.107V162.766ZM178.44 178.793V165.433H183.773V178.793H178.44ZM194.444 181.46H181.107V176.127H194.444V181.46ZM197.11 165.433V178.793H191.777V165.433H197.11ZM302.715 221.148L199.152 221.148V215.814L302.715 215.814V221.148ZM300.048 231.84V218.481H305.382V231.84H300.048ZM199.152 229.173L302.715 229.173V234.506L199.152 234.506V229.173ZM201.819 218.481V231.84H196.485V218.481H201.819ZM199.152 198.131H212.489V203.464H199.152V198.131ZM196.485 214.158V200.798H201.819V214.158H196.485ZM212.489 216.825H199.152V211.492H212.489V216.825ZM215.155 200.798V214.158H209.822V200.798H215.155ZM212.489 186.176H199.152V180.843H212.489V186.176ZM209.822 196.869V183.51H215.155V196.869H209.822ZM199.152 194.202H212.489V199.535H199.152V194.202ZM201.819 183.51V196.869H196.485V183.51H201.819ZM199.152 162.766H212.489V168.099H199.152V162.766ZM196.485 178.793V165.433H201.819V178.793H196.485ZM212.489 181.46H199.152V176.127H212.489V181.46ZM215.155 165.433V178.793H209.822V165.433H215.155ZM230.534 203.464H217.197V198.131H230.534V203.464ZM227.867 214.158V200.798H233.201V214.158H227.867ZM217.197 211.492H230.534V216.825H217.197V211.492ZM219.864 200.798V214.158H214.531V200.798H219.864ZM217.197 180.843H230.534V186.176H217.197V180.843ZM214.531 196.869V183.51H219.864V196.869H214.531ZM230.534 199.535H217.197V194.202H230.534V199.535ZM233.201 183.51V196.869H227.867V183.51H233.201ZM230.534 168.099H217.197V162.766H230.534V168.099ZM227.867 178.793V165.433H233.201V178.793H227.867ZM217.197 176.127H230.534V181.46H217.197V176.127ZM219.864 165.433V178.793H214.531V165.433H219.864ZM235.242 198.131H248.58V203.464H235.242V198.131ZM232.575 214.158V200.798H237.908V214.158H232.575ZM248.58 216.825H235.242V211.492H248.58V216.825ZM251.247 200.798V214.158H245.914V200.798H251.247ZM248.58 186.176H235.242V180.843H248.58V186.176ZM245.914 196.869V183.51H251.247V196.869H245.914ZM235.242 194.202H248.58V199.535H235.242V194.202ZM237.908 183.51V196.869H232.575V183.51H237.908ZM235.242 162.766H248.58V168.099H235.242V162.766ZM232.575 178.793V165.433H237.908V178.793H232.575ZM248.58 181.46H235.242V176.127H248.58V181.46ZM251.247 165.433V178.793H245.914V165.433H251.247ZM266.624 203.464H253.287V198.131H266.624V203.464ZM263.957 214.158V200.798H269.29V214.158H263.957ZM253.287 211.492H266.624V216.825H253.287V211.492ZM255.954 200.798V214.158H250.62V200.798H255.954ZM253.287 180.843H266.624V186.176H253.287V180.843ZM250.62 196.869V183.51H255.954V196.869H250.62ZM266.624 199.535H253.287V194.202H266.624V199.535ZM269.29 183.51V196.869H263.957V183.51H269.29ZM266.624 168.099H253.287V162.766H266.624V168.099ZM263.957 178.793V165.433H269.29V178.793H263.957ZM253.287 176.127H266.624V181.46H253.287V176.127ZM255.954 165.433V178.793H250.62V165.433H255.954ZM271.333 198.131H284.67V203.464H271.333V198.131ZM268.666 214.158V200.798H274V214.158H268.666ZM284.67 216.825H271.333V211.492H284.67V216.825ZM287.337 200.798V214.158H282.003V200.798H287.337ZM284.67 186.176H271.333V180.843H284.67V186.176ZM282.003 196.869V183.51H287.337V196.869H282.003ZM271.333 194.202H284.67V199.535H271.333V194.202ZM274 183.51V196.869H268.666V183.51H274ZM271.333 162.766H284.67V168.099H271.333V162.766ZM268.666 178.793V165.433H274V178.793H268.666ZM284.67 181.46H271.333V176.127H284.67V181.46ZM287.337 165.433V178.793H282.003V165.433H287.337ZM302.716 203.464L289.377 203.464V198.131L302.716 198.131V203.464ZM300.049 214.158V200.798L305.383 200.798V214.158H300.049ZM289.377 211.492H302.716V216.825H289.377V211.492ZM292.044 200.798V214.158L286.711 214.158V200.798H292.044ZM289.377 180.843L302.716 180.843V186.176L289.377 186.176V180.843ZM286.711 196.869V183.51H292.044V196.869H286.711ZM302.716 199.535L289.377 199.535V194.202L302.716 194.202V199.535ZM305.383 183.51V196.869L300.049 196.869V183.51L305.383 183.51ZM302.716 168.099H289.377V162.766H302.716V168.099ZM300.049 178.793V165.433H305.383V178.793L300.049 178.793ZM289.377 176.127L302.716 176.127V181.46L289.377 181.46V176.127ZM292.044 165.433V178.793H286.711V165.433H292.044ZM307.424 215.814H320.759V221.148H307.424V215.814ZM304.758 231.84V218.481H310.091V231.84H304.758ZM320.759 234.506H307.424V229.173H320.759V234.506ZM323.425 218.481V231.84H318.092V218.481H323.425ZM320.759 203.464H307.424V198.131H320.759V203.464ZM318.092 214.158V200.798H323.425V214.158H318.092ZM307.424 211.492H320.759V216.825H307.424V211.492ZM310.091 200.798V214.158H304.758V200.798H310.091ZM307.424 180.843H320.759V186.176H307.424V180.843ZM304.758 196.869V183.51H310.091V196.869H304.758ZM320.759 199.535H307.424V194.202H320.759V199.535ZM323.425 183.51V196.869H318.092V183.51H323.425ZM320.759 168.099H307.424V162.766H320.759V168.099ZM318.092 178.793V165.433H323.425V178.793H318.092ZM307.424 176.127H320.759V181.46H307.424V176.127ZM310.091 165.433V178.793H304.758V165.433H310.091ZM325.468 215.814H338.805V221.148H325.468V215.814ZM322.801 231.84V218.481H328.135V231.84H322.801ZM338.805 234.506H325.468V229.173H338.805V234.506ZM341.471 218.481V231.84H336.138V218.481H341.471ZM338.805 203.464H325.468V198.131H338.805V203.464ZM336.138 214.158V200.798H341.471V214.158H336.138ZM325.468 211.492H338.805V216.825H325.468V211.492ZM328.135 200.798V214.158H322.801V200.798H328.135ZM325.468 180.843H338.805V186.176H325.468V180.843ZM322.801 196.869V183.51H328.135V196.869H322.801ZM338.805 199.535H325.468V194.202H338.805V199.535ZM341.471 183.51V196.869H336.138V183.51H341.471ZM338.805 168.099L325.468 168.099V162.766L338.805 162.766V168.099ZM336.138 178.793V165.433H341.471V178.793H336.138ZM325.468 176.127H338.805V181.46H325.468V176.127ZM328.135 165.433V178.793H322.801V165.433H328.135ZM343.515 215.814H356.85V221.148H343.515V215.814ZM340.848 231.84V218.481H346.182V231.84H340.848ZM356.85 234.506H343.515V229.173H356.85V234.506ZM359.517 218.481V231.84H354.183V218.481H359.517ZM356.85 203.464H343.515V198.131H356.85V203.464ZM354.183 214.158V200.798H359.517V214.158H354.183ZM343.515 211.492H356.85V216.825H343.515V211.492ZM346.182 200.798V214.158H340.848V200.798H346.182ZM343.515 180.843H356.85V186.176H343.515V180.843ZM340.848 196.869V183.51H346.182V196.869H340.848ZM356.85 199.535H343.515V194.202H356.85V199.535ZM359.517 183.51V196.869H354.183V183.51H359.517ZM356.85 168.099H343.515V162.766H356.85V168.099ZM354.183 178.793V165.433H359.517V178.793H354.183ZM343.515 176.127H356.85V181.46H343.515V176.127ZM346.182 165.433V178.793H340.848V165.433H346.182ZM361.561 198.131H374.896V203.464H361.561V198.131ZM358.894 214.158V200.798H364.228V214.158H358.894ZM374.896 216.825H361.561V211.492H374.896V216.825ZM377.563 200.798V214.158H372.229V200.798H377.563ZM374.896 186.176H361.561V180.843H374.896V186.176ZM372.229 196.869V183.51H377.563V196.869H372.229ZM361.561 194.202H374.896V199.535H361.561V194.202ZM364.228 183.51V196.869H358.894V183.51H364.228ZM361.561 162.766H374.896V168.099H361.561V162.766ZM358.894 178.793V165.433H364.228V178.793H358.894ZM374.896 181.46H361.561V176.127H374.896V181.46ZM377.563 165.433V178.793H372.229V165.433H377.563ZM392.942 203.464H379.605V198.131H392.942V203.464ZM390.276 214.158V200.798H395.609V214.158H390.276ZM379.605 211.492H392.942V216.825H379.605V211.492ZM382.272 200.798V214.158H376.939V200.798H382.272ZM379.605 180.843H392.942V186.176H379.605V180.843ZM376.939 196.869V183.51H382.272V196.869H376.939ZM392.942 199.535H379.605V194.202H392.942V199.535ZM395.609 183.51V196.869H390.276V183.51H395.609ZM392.942 168.099H379.605V162.766H392.942V168.099ZM390.276 178.793V165.433H395.609V178.793H390.276ZM379.605 176.127H392.942V181.46H379.605V176.127ZM382.272 165.433V178.793H376.939V165.433H382.272ZM392.945 234.506H361.562V229.173H392.945V234.506ZM395.611 218.481V231.84H390.278V218.481H395.611ZM361.562 215.814H392.945V221.148H361.562V215.814ZM358.895 231.84V218.481H364.229V231.84H358.895ZM410.988 203.464H397.652V198.131H410.988V203.464ZM408.322 214.158V200.798H413.655V214.158H408.322ZM397.652 211.492H410.988V216.825H397.652V211.492ZM400.319 200.798V214.158H394.986V200.798H400.319ZM397.652 180.843H410.988V186.176H397.652V180.843ZM394.986 196.869V183.51H400.319V196.869H394.986ZM410.988 199.535H397.652V194.202H410.988V199.535ZM413.655 183.51V196.869H408.322V183.51H413.655ZM410.988 168.099H397.652V162.766H410.988V168.099ZM408.322 178.793V165.433H413.655V178.793H408.322ZM397.652 176.127H410.988V181.46H397.652V176.127ZM400.319 165.433V178.793H394.986V165.433H400.319Z" fill="#4E4C4F"/>
<path d="M175.703 165.861H162.416V179.148H175.703V165.861Z" fill="#AD9E9E" stroke="#4E4C4F" stroke-width="5.33333"/>
<path d="M194.404 165.861H181.116V179.148H194.404V165.861Z" fill="#AD9E9E" stroke="#4E4C4F" stroke-width="5.33333"/>
<path d="M212.612 165.861H199.325V179.148H212.612V165.861Z" fill="#AD9E9E" stroke="#4E4C4F" stroke-width="5.33333"/>
<path d="M230.821 165.861H217.533V179.148H230.821V165.861Z" fill="#AD9E9E" stroke="#4E4C4F" stroke-width="5.33333"/>
<path d="M248.537 165.861H235.25V179.148H248.537V165.861Z" fill="#AD9E9E" stroke="#4E4C4F" stroke-width="5.33333"/>
<path d="M266.745 165.861H253.458V179.148H266.745V165.861Z" fill="#AD9E9E" stroke="#4E4C4F" stroke-width="5.33333"/>
<path d="M284.954 165.861H271.667V179.148H284.954V165.861Z" fill="#AD9E9E" stroke="#4E4C4F" stroke-width="5.33333"/>
<path d="M302.67 165.861H289.383V179.148H302.67V165.861Z" fill="#AD9E9E" stroke="#4E4C4F" stroke-width="5.33333"/>
<path d="M320.879 165.861H307.592V179.148H320.879V165.861Z" fill="#AD9E9E" stroke="#4E4C4F" stroke-width="5.33333"/>
<path d="M339.087 165.861H325.8V179.148H339.087V165.861Z" fill="#AD9E9E" stroke="#4E4C4F" stroke-width="5.33333"/>
<path d="M356.804 165.861H343.516V179.148H356.804V165.861Z" fill="#AD9E9E" stroke="#4E4C4F" stroke-width="5.33333"/>
<path d="M375.012 165.861H361.725V179.148H375.012V165.861Z" fill="#AD9E9E" stroke="#4E4C4F" stroke-width="5.33333"/>
<path d="M393.221 165.861H379.933V179.148H393.221V165.861Z" fill="#AD9E9E" stroke="#4E4C4F" stroke-width="5.33333"/>
<path d="M410.937 165.861H397.65V179.148H410.937V165.861Z" fill="#AD9E9E" stroke="#4E4C4F" stroke-width="5.33333"/>
<path d="M175.703 183.577H162.416V196.864H175.703V183.577Z" fill="#AD9E9E" stroke="#4E4C4F" stroke-width="5.33333"/>
<path d="M194.404 183.577H181.116V196.864H194.404V183.577Z" fill="#AD9E9E" stroke="#4E4C4F" stroke-width="5.33333"/>
<path d="M212.612 183.577H199.325V196.864H212.612V183.577Z" fill="#AD9E9E" stroke="#4E4C4F" stroke-width="5.33333"/>
<path d="M230.821 183.577H217.533V196.864H230.821V183.577Z" fill="#AD9E9E" stroke="#4E4C4F" stroke-width="5.33333"/>
<path d="M248.537 183.577H235.25V196.864H248.537V183.577Z" fill="#AD9E9E" stroke="#4E4C4F" stroke-width="5.33333"/>
<path d="M266.745 183.577H253.458V196.864H266.745V183.577Z" fill="#AD9E9E" stroke="#4E4C4F" stroke-width="5.33333"/>
<path d="M284.954 183.577H271.667V196.864H284.954V183.577Z" fill="#AD9E9E" stroke="#4E4C4F" stroke-width="5.33333"/>
<path d="M302.67 183.577H289.383V196.864H302.67V183.577Z" fill="#AD9E9E" stroke="#4E4C4F" stroke-width="5.33333"/>
<path d="M320.879 183.577H307.592V196.864H320.879V183.577Z" fill="#AD9E9E" stroke="#4E4C4F" stroke-width="5.33333"/>
<path d="M339.087 183.577H325.8V196.864H339.087V183.577Z" fill="#AD9E9E" stroke="#4E4C4F" stroke-width="5.33333"/>
<path d="M356.804 183.577H343.516V196.864H356.804V183.577Z" fill="#AD9E9E" stroke="#4E4C4F" stroke-width="5.33333"/>
<path d="M375.012 183.577H361.725V196.864H375.012V183.577Z" fill="#AD9E9E" stroke="#4E4C4F" stroke-width="5.33333"/>
<path d="M393.221 183.577H379.933V196.864H393.221V183.577Z" fill="#AD9E9E" stroke="#4E4C4F" stroke-width="5.33333"/>
<path d="M410.937 183.577H397.65V196.864H410.937V183.577Z" fill="#AD9E9E" stroke="#4E4C4F" stroke-width="5.33333"/>
<path d="M175.703 200.801H162.416V214.088H175.703V200.801Z" fill="#AD9E9E" stroke="#4E4C4F" stroke-width="5.33333"/>
<path d="M194.404 200.801H181.116V214.088H194.404V200.801Z" fill="#AD9E9E" stroke="#4E4C4F" stroke-width="5.33333"/>
<path d="M212.612 200.801H199.325V214.088H212.612V200.801Z" fill="#AD9E9E" stroke="#4E4C4F" stroke-width="5.33333"/>
<path d="M230.821 200.801H217.533V214.088H230.821V200.801Z" fill="#AD9E9E" stroke="#4E4C4F" stroke-width="5.33333"/>
<path d="M248.537 200.801H235.25V214.088H248.537V200.801Z" fill="#AD9E9E" stroke="#4E4C4F" stroke-width="5.33333"/>
<path d="M266.745 200.801H253.458V214.088H266.745V200.801Z" fill="#AD9E9E" stroke="#4E4C4F" stroke-width="5.33333"/>
<path d="M284.954 200.801H271.667V214.088H284.954V200.801Z" fill="#AD9E9E" stroke="#4E4C4F" stroke-width="5.33333"/>
<path d="M302.67 200.801H289.383V214.088H302.67V200.801Z" fill="#AD9E9E" stroke="#4E4C4F" stroke-width="5.33333"/>
<path d="M320.879 200.801H307.592V214.088H320.879V200.801Z" fill="#AD9E9E" stroke="#4E4C4F" stroke-width="5.33333"/>
<path d="M339.087 200.801H325.8V214.088H339.087V200.801Z" fill="#AD9E9E" stroke="#4E4C4F" stroke-width="5.33333"/>
<path d="M356.804 200.801H343.516V214.088H356.804V200.801Z" fill="#AD9E9E" stroke="#4E4C4F" stroke-width="5.33333"/>
<path d="M375.012 200.801H361.725V214.088H375.012V200.801Z" fill="#AD9E9E" stroke="#4E4C4F" stroke-width="5.33333"/>
<path d="M393.221 200.801H379.933V214.088H393.221V200.801Z" fill="#AD9E9E" stroke="#4E4C4F" stroke-width="5.33333"/>
<path d="M410.937 200.801H397.65V214.088H410.937V200.801Z" fill="#AD9E9E" stroke="#4E4C4F" stroke-width="5.33333"/>
<path d="M175.703 218.518H162.416V231.805H175.703V218.518Z" fill="#AD9E9E" stroke="#4E4C4F" stroke-width="5.33333"/>
<path d="M194.404 218.518H181.116V231.805H194.404V218.518Z" fill="#AD9E9E" stroke="#4E4C4F" stroke-width="5.33333"/>
<path d="M302.67 218.518H199.325V231.805H302.67V218.518Z" fill="#AD9E9E" stroke="#4E4C4F" stroke-width="5.33333"/>
<path d="M320.879 218.518H307.592V231.805H320.879V218.518Z" fill="#AD9E9E" stroke="#4E4C4F" stroke-width="5.33333"/>
<path d="M339.087 218.518H325.8V231.805H339.087V218.518Z" fill="#AD9E9E" stroke="#4E4C4F" stroke-width="5.33333"/>
<path d="M356.804 218.518H343.516V231.805H356.804V218.518Z" fill="#AD9E9E" stroke="#4E4C4F" stroke-width="5.33333"/>
<path d="M361.725 231.805H393.221V218.518H361.725V231.805Z" fill="#AD9E9E" stroke="#4E4C4F" stroke-width="5.33333"/>
<path d="M284.04 270.19H285.432H311.008V246.876H258.464V270.19H284.04Z" fill="#E0D8D3"/>
<path fill-rule="evenodd" clip-rule="evenodd" d="M284.04 270.19H285.432H311.008V246.876H258.464V270.19H284.04Z" stroke="#4E4C4F" stroke-width="5.33333"/>
<path fill-rule="evenodd" clip-rule="evenodd" d="M257.198 276.304V270.052V245.392H312.456V270.052V276.304V281.861H285.522H284.132H257.198V276.304ZM258.588 271.441V274.915V280.472H284.132V271.441H258.588ZM285.522 271.441V280.472H311.066V274.915V271.441H285.522ZM311.066 246.781V270.052H285.522H284.132H258.588V246.781H311.066Z" fill="#AD9E9E"/>
<path d="M258.588 271.441H255.921V268.774H258.588V271.441ZM284.132 271.441V268.774H286.798V271.441H284.132ZM284.132 280.472H286.798V283.139H284.132V280.472ZM258.588 280.472V283.139H255.921V280.472H258.588ZM285.522 280.472V283.139H282.855V280.472H285.522ZM285.522 271.441H282.855V268.774H285.522V271.441ZM311.066 271.441V268.774H313.733V271.441H311.066ZM311.066 280.472H313.733V283.139H311.066V280.472ZM311.066 246.781V244.114H313.733V246.781H311.066ZM311.066 270.052H313.733V272.718H311.066V270.052ZM258.588 270.052V272.718H255.921V270.052H258.588ZM258.588 246.781H255.921V244.114H258.588V246.781ZM257.198 281.861V284.528H254.531V281.861H257.198ZM312.456 281.861H315.123V284.528H312.456V281.861ZM312.456 245.392V242.725H315.123V245.392H312.456ZM257.198 245.392H254.531V242.725H257.198V245.392ZM255.921 274.915V271.441H261.255V274.915H255.921ZM258.588 268.774H284.132V274.108H258.588V268.774ZM286.798 271.441V280.472H281.465V271.441H286.798ZM284.132 283.139H258.588V277.806H284.132V283.139ZM255.921 280.472V274.915H261.255V280.472H255.921ZM282.855 280.472V271.441H288.188V280.472H282.855ZM285.522 268.774H311.066V274.108H285.522V268.774ZM313.733 271.441V274.915H308.399V271.441H313.733ZM313.733 274.915V280.472H308.399V274.915H313.733ZM311.066 283.139H285.522V277.806H311.066V283.139ZM313.733 246.781V270.052H308.399V246.781H313.733ZM311.066 272.718H285.522V267.385H311.066V272.718ZM285.522 272.718H284.132V267.385H285.522V272.718ZM284.132 272.718H258.588V267.385L284.132 267.385V272.718ZM255.921 270.052V246.781H261.255V270.052H255.921ZM258.588 244.114H311.066V249.448H258.588V244.114ZM259.865 270.052V276.304H254.531V270.052H259.865ZM259.865 276.304V281.861H254.531V276.304H259.865ZM257.198 279.194H284.132V284.528H257.198V279.194ZM284.132 279.194H285.522V284.528H284.132V279.194ZM285.522 279.194H312.456V284.528H285.522V279.194ZM309.79 281.861V276.304H315.123V281.861H309.79ZM309.79 276.304V270.052H315.123V276.304H309.79ZM309.79 270.052V245.392H315.123V270.052H309.79ZM312.456 248.058H257.198V242.725H312.456V248.058ZM259.865 245.392V270.052H254.531V245.392H259.865Z" fill="#4E4C4F"/>
<path d="M283.97 271.667H258.463V275.173V280.782H283.97V271.667Z" fill="#E0D8D3"/>
<path fill-rule="evenodd" clip-rule="evenodd" d="M283.97 271.667H258.463V275.173V280.782H283.97V271.667Z" stroke="#4E4C4F" stroke-width="5.33333"/>
<path d="M311.036 274.988V271.436H285.529V280.672H311.036V274.988Z" fill="#E0D8D3"/>
<path fill-rule="evenodd" clip-rule="evenodd" d="M311.036 274.988V271.436H285.529V280.672H311.036V274.988Z" stroke="#4E4C4F" stroke-width="5.33333"/>
<path fill-rule="evenodd" clip-rule="evenodd" d="M155.811 240.365V158.134L417.762 158.134H419.155V240.365H417.762L155.811 240.365ZM418.459 239.669V158.83H417.762L156.507 158.83V239.669L417.762 239.669H418.459Z" fill="#B3B3B3"/>
<path d="M418.605 158.682V156.016H421.272V158.682H418.605ZM418.605 239.475H421.272V242.142H418.605V239.475ZM156.224 239.475V242.142H153.557V239.475H156.224ZM156.224 158.682H153.557V156.016H156.224V158.682ZM155.526 157.987H152.859V155.32H155.526V157.987ZM155.526 240.171V242.838H152.859V240.171H155.526ZM419.303 240.171H421.97V242.838H419.303V240.171ZM419.303 157.987V155.32H421.97V157.987H419.303ZM421.272 158.682V239.475H415.939V158.682H421.272ZM418.605 242.142H417.908V236.809H418.605V242.142ZM417.908 242.142L156.224 242.142V236.809L417.908 236.809V242.142ZM153.557 239.475V158.682H158.89V239.475H153.557ZM156.224 156.016L417.908 156.016V161.349L156.224 161.349V156.016ZM417.908 156.016H418.605V161.349H417.908V156.016ZM158.193 157.987V240.171H152.859V157.987H158.193ZM155.526 237.504L417.908 237.504V242.838L155.526 242.838V237.504ZM417.908 237.504H419.303V242.838H417.908V237.504ZM416.636 240.171V157.987H421.97V240.171H416.636ZM419.303 160.653H417.908V155.32H419.303V160.653ZM417.908 160.653L155.526 160.653V155.32L417.908 155.32V160.653Z" fill="#4E4C4F"/>
<mask id="mask0_1_2" style="mask-type:luminance" maskUnits="userSpaceOnUse" x="154" y="143" width="51" height="13">
<path fill-rule="evenodd" clip-rule="evenodd" d="M154.079 143.017H204.139V155.788H154.079V143.017Z" fill="white"/>
</mask>
<g mask="url(#mask0_1_2)">
<path d="M202.449 154.127H155.768V144.678H202.449V154.127Z" fill="#E6E6E6" stroke="#4E4C4F" stroke-width="5.33333"/>
</g>
<mask id="mask1_1_2" style="mask-type:luminance" maskUnits="userSpaceOnUse" x="370" y="143" width="51" height="13">
<path fill-rule="evenodd" clip-rule="evenodd" d="M370.809 143.017H420.868V155.788H370.809V143.017Z" fill="white"/>
</mask>
<g mask="url(#mask1_1_2)">
<path d="M419.178 154.127H372.498V144.678H419.178V154.127Z" fill="#E6E6E6" stroke="#4E4C4F" stroke-width="5.33333"/>
</g>
<path d="M424.341 120.798L150.111 120.798C140.873 120.798 133.386 128.338 133.386 137.638L441.067 137.638C441.067 128.338 433.579 120.798 424.341 120.798Z" fill="#E6E6E6"/>
<path fill-rule="evenodd" clip-rule="evenodd" d="M424.341 120.798L150.111 120.798C140.873 120.798 133.386 128.338 133.386 137.638L441.067 137.638C441.067 128.338 433.579 120.798 424.341 120.798Z" stroke="#4E4C4F" stroke-width="5.33333"/>
<path d="M441.448 140.762L133.873 140.762V137.318L441.448 137.318V140.762Z" fill="#E0D8D3" stroke="#4E4C4F" stroke-width="5.33333"/>
<path d="M506.408 311.332C506.408 320.587 498.873 328.09 489.58 328.09H486.073C476.779 328.09 469.244 320.587 469.244 311.332V281.991C469.244 272.736 476.779 265.232 486.073 265.232H489.58C498.873 265.232 506.408 272.736 506.408 281.991V311.332Z" fill="#E0D8D3"/>
<path fill-rule="evenodd" clip-rule="evenodd" d="M506.408 311.332C506.408 320.587 498.873 328.09 489.58 328.09H486.073C476.779 328.09 469.244 320.587 469.244 311.332V281.991C469.244 272.736 476.779 265.232 486.073 265.232H489.58C498.873 265.232 506.408 272.736 506.408 281.991V311.332Z" stroke="#4E4C4F" stroke-width="5.33333"/>
<path d="M381.902 309.068H320.879V250.505H381.902V309.068Z" fill="#4E4C4F"/>
<path d="M360.002 197.356C356.51 197.356 353.677 200.219 353.677 203.747V252.19H366.331V203.747C366.331 200.219 363.499 197.356 360.002 197.356Z" fill="#4E4C4F"/>
<path d="M343.762 192.435C340.27 192.435 337.437 195.314 337.437 198.865V253.236L350.088 251.748V198.865C350.088 195.314 347.258 192.435 343.762 192.435Z" fill="#4E4C4F"/>
<path d="M327.522 205.23C324.098 205.23 321.318 208.046 321.318 211.516V261.148H333.73V211.516C333.73 208.046 330.951 205.23 327.522 205.23Z" fill="#4E4C4F"/>
<path d="M376.242 210.152C372.961 210.152 370.299 212.854 370.299 216.183V251.366L382.184 252.178V216.183C382.184 212.854 379.524 210.152 376.242 210.152Z" fill="#4E4C4F"/>
<path d="M321.371 309.56V271.473L314.204 262.585L314.197 262.589C312.67 261.048 310.543 260.085 308.184 260.085C303.539 260.085 299.771 263.794 299.771 268.37C299.771 269.701 300.121 270.941 300.687 272.056L300.666 272.072L301.065 272.739C301.127 272.841 301.182 272.952 301.25 273.052L321.371 309.56Z" fill="#4E4C4F"/>
<path d="M381.902 308.576C381.902 313.137 378.161 316.835 373.543 316.835H329.391C324.775 316.835 321.032 313.137 321.032 308.576C321.032 304.015 324.775 300.318 329.391 300.318H373.543C378.161 300.318 381.902 304.015 381.902 308.576Z" fill="#4E4C4F"/>
<path d="M370.583 368.615H332.198V307.592H370.583V368.615Z" fill="#4E4C4F"/>
<path d="M380.918 307.099H322.355V250.505H380.918V307.099Z" fill="#EDB996"/>
<path d="M360.002 199.325C356.642 199.325 353.914 202.095 353.914 205.51V252.395H366.093V205.51C366.093 202.095 363.367 199.325 360.002 199.325Z" fill="#EDB996"/>
<path d="M344.255 194.404C340.894 194.404 338.167 197.174 338.167 200.59V252.905L350.343 251.472V200.59C350.343 197.174 347.619 194.404 344.255 194.404Z" fill="#EDB996"/>
<path d="M328.507 207.199C325.211 207.199 322.535 209.924 322.535 213.282V261.325H334.481V213.282C334.481 209.924 331.806 207.199 328.507 207.199Z" fill="#EDB996"/>
<path d="M375.504 212.12C372.297 212.12 369.693 214.714 369.693 217.911V251.69L381.314 252.468V217.911C381.314 214.714 378.713 212.12 375.504 212.12Z" fill="#EDB996"/>
<path d="M322.355 308.084V271.107L315.501 262.479L315.494 262.483C314.033 260.986 311.998 260.052 309.743 260.052C305.299 260.052 301.696 263.653 301.696 268.095C301.696 269.388 302.03 270.592 302.572 271.673L302.552 271.689L302.933 272.337C302.994 272.436 303.045 272.544 303.11 272.64L322.355 308.084Z" fill="#DDA885"/>
<path d="M380.918 307.099C380.918 311.508 377.313 315.082 372.864 315.082H330.32C325.873 315.082 322.266 311.508 322.266 307.099C322.266 302.69 325.873 299.116 330.32 299.116H372.864C377.313 299.116 380.918 302.69 380.918 307.099Z" fill="#EDB996"/>
<path d="M370.091 365.17H333.182V306.115H370.091V365.17Z" fill="#EDB996"/>
<path d="M486.724 285.938H472.7V281.937C472.7 274.645 478.602 268.714 485.858 268.714H486.724V285.938Z" fill="#C6C0BD"/>
<path d="M502.964 285.938H488.456V268.714H489.679C497.005 268.714 502.964 274.645 502.964 281.937V285.938Z" fill="#C6C0BD"/>
<path d="M422.256 152.573V175.219C422.256 181.783 430.625 181.986 430.625 181.986H448.906C455.153 181.986 455.035 188.111 455.035 188.111V218.422V199.156V221.803C455.035 228.366 463.404 228.57 463.404 228.57H481.685C487.933 228.57 487.814 234.694 487.814 234.694V265.005" stroke="#ADC3C7" stroke-width="2.66667"/>
<path d="M157.987 311.036H219.01V252.474H157.987V311.036Z" fill="#4E4C4F"/>
<path d="M179.886 199.817C183.378 199.817 186.212 202.679 186.212 206.208V254.651H173.558V206.208C173.558 202.679 176.39 199.817 179.886 199.817Z" fill="#4E4C4F"/>
<path d="M196.126 194.404C199.618 194.404 202.452 197.283 202.452 200.833V255.205L189.8 253.716V200.833C189.8 197.283 192.631 194.404 196.126 194.404Z" fill="#4E4C4F"/>
<path d="M212.366 207.691C215.79 207.691 218.57 210.506 218.57 213.976V263.609H206.158V213.976C206.158 210.506 208.938 207.691 212.366 207.691Z" fill="#4E4C4F"/>
<path d="M163.646 212.612C166.927 212.612 169.59 215.315 169.59 218.644V253.827L157.704 254.638V218.644C157.704 215.315 160.364 212.612 163.646 212.612Z" fill="#4E4C4F"/>
<path d="M218.518 311.528V273.442L225.684 264.554L225.691 264.558C227.218 263.016 229.346 262.053 231.704 262.053C236.35 262.053 240.117 265.763 240.117 270.338C240.117 271.67 239.767 272.91 239.201 274.025L239.223 274.041L238.823 274.708C238.761 274.81 238.707 274.921 238.638 275.02L218.518 311.528Z" fill="#4E4C4F"/>
<path d="M157.987 311.036C157.987 315.598 161.728 319.295 166.345 319.295H210.498C215.113 319.295 218.856 315.598 218.856 311.036C218.856 306.475 215.113 302.778 210.498 302.778H166.345C161.728 302.778 157.987 306.475 157.987 311.036Z" fill="#4E4C4F"/>
<path d="M169.305 371.075H207.691V310.052H169.305V371.075Z" fill="#4E4C4F"/>
<path d="M159.463 309.56H218.025V252.966H159.463V309.56Z" fill="#EDB996"/>
<path d="M180.87 201.785C184.231 201.785 186.958 204.556 186.958 207.971V254.856H174.78V207.971C174.78 204.556 177.505 201.785 180.87 201.785Z" fill="#EDB996"/>
<path d="M196.618 196.864C199.979 196.864 202.706 199.635 202.706 203.051V255.365L190.53 253.933V203.051C190.53 199.635 193.254 196.864 196.618 196.864Z" fill="#EDB996"/>
<path d="M212.366 209.167C215.661 209.167 218.338 211.893 218.338 215.251V263.293H206.392V215.251C206.392 211.893 209.067 209.167 212.366 209.167Z" fill="#EDB996"/>
<path d="M165.368 214.088C168.576 214.088 171.179 216.683 171.179 219.879V253.658L159.559 254.437V219.879C159.559 216.683 162.159 214.088 165.368 214.088Z" fill="#EDB996"/>
<path d="M218.518 310.052V273.076L225.372 264.447L225.379 264.451C226.84 262.955 228.875 262.021 231.131 262.021C235.574 262.021 239.177 265.622 239.177 270.064C239.177 271.356 238.843 272.56 238.301 273.642L238.321 273.658L237.939 274.305C237.879 274.405 237.828 274.512 237.762 274.609L218.518 310.052Z" fill="#DDA885"/>
<path d="M159.463 309.068C159.463 313.477 163.068 317.051 167.516 317.051H210.061C214.508 317.051 218.114 313.477 218.114 309.068C218.114 304.659 214.508 301.085 210.061 301.085H167.516C163.068 301.085 159.463 304.659 159.463 309.068Z" fill="#EDB996"/>
<path d="M170.29 367.138H207.199V308.084H170.29V367.138Z" fill="#EDB996"/>
<path d="M188.99 332.198H219.01V407H188.99L188.99 332.198Z" fill="#00838F" stroke="#4E4C4F" stroke-width="2.66667"/>
<path d="M158.971 332.198H188.99V407H158.971V332.198Z" fill="#00BCD4" stroke="#4E4C4F" stroke-width="2.66667"/>
<path d="M216.057 344.993C216.057 347.951 213.69 350.349 210.77 350.349C207.85 350.349 205.483 347.951 205.483 344.993C205.483 342.034 207.85 339.636 210.77 339.636C213.69 339.636 216.057 342.034 216.057 344.993Z" fill="#4E4C4F"/>
<path d="M352.375 332.198H322.355V407H352.375V332.198Z" fill="#00838F" stroke="#4E4C4F" stroke-width="2.66667"/>
<path d="M382.394 332.198H352.375V407H382.394V332.198Z" fill="#00BCD4" stroke="#4E4C4F" stroke-width="2.66667"/>
<path d="M325.308 344.993C325.308 347.951 327.675 350.349 330.595 350.349C333.514 350.349 335.881 347.951 335.881 344.993C335.881 342.034 333.514 339.636 330.595 339.636C327.675 339.636 325.308 342.034 325.308 344.993Z" fill="#4E4C4F"/>
<path d="M334.658 211.628H326.807V217.494H326.851C326.84 217.568 326.807 217.633 326.807 217.71C326.807 218.543 327.483 219.219 328.318 219.219H333.148C333.983 219.219 334.658 218.543 334.658 217.71C334.658 217.633 334.626 217.568 334.615 217.494H334.658V211.628Z" fill="#EFD6C5"/>
<path d="M350.406 199.325H342.555V205.191H342.599C342.588 205.265 342.555 205.33 342.555 205.407C342.555 206.24 343.231 206.916 344.065 206.916H348.896C349.731 206.916 350.406 206.24 350.406 205.407C350.406 205.33 350.373 205.265 350.363 205.191H350.406V199.325Z" fill="#EFD6C5"/>
<path d="M365.662 203.754H358.624V209.012H358.663C358.652 209.079 358.624 209.137 358.624 209.206C358.624 209.953 359.229 210.559 359.977 210.559H364.308C365.055 210.559 365.662 209.953 365.662 209.206C365.662 209.137 365.633 209.079 365.622 209.012H365.662V203.754Z" fill="#EFD6C5"/>
<path d="M380.918 217.041H374.141V222.357H374.179C374.17 222.424 374.141 222.482 374.141 222.552C374.141 223.307 374.723 223.92 375.444 223.92H379.614C380.334 223.92 380.918 223.307 380.918 222.552C380.918 222.482 380.889 222.424 380.879 222.357H380.918V217.041Z" fill="#EFD6C5"/>
<path d="M208.183 213.104H216.034V218.971H215.99C216.001 219.044 216.034 219.109 216.034 219.186C216.034 220.02 215.359 220.696 214.524 220.696H209.693C208.858 220.696 208.183 220.02 208.183 219.186C208.183 219.109 208.216 219.044 208.227 218.971H208.183V213.104Z" fill="#EFD6C5"/>
<path d="M176.687 205.722H184.538V211.589H184.494C184.505 211.662 184.538 211.728 184.538 211.805C184.538 212.638 183.862 213.314 183.028 213.314H178.197C177.362 213.314 176.687 212.638 176.687 211.805C176.687 211.728 176.72 211.662 176.73 211.589H176.687V205.722Z" fill="#EFD6C5"/>
<path d="M192.435 201.785H200.286V207.652H200.242C200.253 207.725 200.286 207.791 200.286 207.868C200.286 208.701 199.61 209.377 198.776 209.377H193.945C193.11 209.377 192.435 208.701 192.435 207.868C192.435 207.791 192.468 207.725 192.478 207.652H192.435V201.785Z" fill="#EFD6C5"/>
<path d="M161.432 218.518H169.282V224.384H169.239C169.25 224.457 169.282 224.523 169.282 224.6C169.282 225.433 168.606 226.109 167.772 226.109H162.942C162.107 226.109 161.432 225.433 161.432 224.6C161.432 224.523 161.464 224.457 161.474 224.384H161.432V218.518Z" fill="#EFD6C5"/>
<path fill-rule="evenodd" clip-rule="evenodd" d="M80.7236 182.101H82.6921V185.053H80.7236V182.101Z" stroke="#00BCD4" stroke-width="1.33333"/>
<path fill-rule="evenodd" clip-rule="evenodd" d="M75.8024 182.101H77.7709V185.053H75.8024V182.101Z" stroke="#00BCD4" stroke-width="1.33333"/>
<path fill-rule="evenodd" clip-rule="evenodd" d="M71.3733 182.101H73.3418V185.053H71.3733V182.101Z" stroke="#00BCD4" stroke-width="1.33333"/>
<path fill-rule="evenodd" clip-rule="evenodd" d="M66.4521 182.101H68.4206V185.053H66.4521V182.101Z" stroke="#00BCD4" stroke-width="1.33333"/>
<path fill-rule="evenodd" clip-rule="evenodd" d="M62.0231 182.101H63.9916V185.053H62.0231V182.101Z" stroke="#00BCD4" stroke-width="1.33333"/>
<path fill-rule="evenodd" clip-rule="evenodd" d="M57.1018 182.101H59.0703V185.053H57.1018V182.101Z" stroke="#00BCD4" stroke-width="1.33333"/>
<path fill-rule="evenodd" clip-rule="evenodd" d="M52.1807 182.101H54.1491V185.053H52.1807V182.101Z" stroke="#00BCD4" stroke-width="1.33333"/>
<path fill-rule="evenodd" clip-rule="evenodd" d="M47.7515 182.101H49.7199V185.053H47.7515V182.101Z" stroke="#00BCD4" stroke-width="1.33333"/>
<path fill-rule="evenodd" clip-rule="evenodd" d="M42.8303 182.101H44.7988V185.053H42.8303V182.101Z" stroke="#00BCD4" stroke-width="1.33333"/>
<path fill-rule="evenodd" clip-rule="evenodd" d="M38.4012 182.101H40.3697V185.053H38.4012V182.101Z" stroke="#00BCD4" stroke-width="1.33333"/>
<path fill-rule="evenodd" clip-rule="evenodd" d="M33.48 182.101H35.4485V185.053H33.48V182.101Z" stroke="#00BCD4" stroke-width="1.33333"/>
<path fill-rule="evenodd" clip-rule="evenodd" d="M29.0509 182.101H31.0194V185.053H29.0509V182.101Z" stroke="#00BCD4" stroke-width="1.33333"/>
<path fill-rule="evenodd" clip-rule="evenodd" d="M24.1296 182.101H26.0981V185.053H24.1296V182.101Z" stroke="#00BCD4" stroke-width="1.33333"/>
<path fill-rule="evenodd" clip-rule="evenodd" d="M123.046 125.015H125.015V127.967H123.046V125.015Z" stroke="#00838F" stroke-width="1.33333"/>
<path fill-rule="evenodd" clip-rule="evenodd" d="M118.125 125.015H120.093V127.967H118.125V125.015Z" stroke="#00838F" stroke-width="1.33333"/>
<path fill-rule="evenodd" clip-rule="evenodd" d="M113.696 125.015H115.664V127.967H113.696V125.015Z" stroke="#00838F" stroke-width="1.33333"/>
<path fill-rule="evenodd" clip-rule="evenodd" d="M108.775 125.015H110.743V127.967H108.775V125.015Z" stroke="#00838F" stroke-width="1.33333"/>
<path fill-rule="evenodd" clip-rule="evenodd" d="M104.345 125.015H106.314V127.967H104.345V125.015Z" stroke="#00838F" stroke-width="1.33333"/>
<path fill-rule="evenodd" clip-rule="evenodd" d="M99.4242 125.015H101.393V127.967H99.4242V125.015Z" stroke="#00838F" stroke-width="1.33333"/>
<path fill-rule="evenodd" clip-rule="evenodd" d="M94.5031 125.015H96.4715V127.967H94.5031V125.015Z" stroke="#00838F" stroke-width="1.33333"/>
<path fill-rule="evenodd" clip-rule="evenodd" d="M90.074 125.015H92.0425V127.967H90.074V125.015Z" stroke="#00838F" stroke-width="1.33333"/>
<path fill-rule="evenodd" clip-rule="evenodd" d="M85.1527 125.015H87.1212V127.967H85.1527V125.015Z" stroke="#00838F" stroke-width="1.33333"/>
<path fill-rule="evenodd" clip-rule="evenodd" d="M80.7236 125.015H82.6921V127.967H80.7236V125.015Z" stroke="#00838F" stroke-width="1.33333"/>
<path fill-rule="evenodd" clip-rule="evenodd" d="M75.8024 125.015H77.7709V127.967H75.8024V125.015Z" stroke="#00838F" stroke-width="1.33333"/>
<path fill-rule="evenodd" clip-rule="evenodd" d="M71.3733 125.015H73.3418V127.967H71.3733V125.015Z" stroke="#00838F" stroke-width="1.33333"/>
<path fill-rule="evenodd" clip-rule="evenodd" d="M66.4521 125.015H68.4206V127.967H66.4521V125.015Z" stroke="#00838F" stroke-width="1.33333"/>
<path d="M105.55 214.714L98.6613 219.237C98.4447 219.264 98.2407 219.373 98.1022 219.562C97.9905 219.715 97.9444 219.893 97.9511 220.069C97.936 220.244 97.9737 220.424 98.0787 220.582C98.2105 220.776 98.4103 220.893 98.6243 220.928L105.308 225.746C105.67 226.006 106.176 225.928 106.438 225.57C106.7 225.213 106.62 224.711 106.259 224.452L100.25 220.118L106.443 216.049C106.817 215.804 106.918 215.308 106.672 214.938C106.425 214.57 105.924 214.47 105.55 214.714Z" fill="#4E4C4F"/>
<path fill-rule="evenodd" clip-rule="evenodd" d="M105.55 214.714L98.6613 219.237C98.4447 219.264 98.2407 219.373 98.1022 219.562C97.9905 219.715 97.9444 219.893 97.9511 220.069C97.936 220.244 97.9737 220.424 98.0787 220.582C98.2105 220.776 98.4103 220.893 98.6243 220.928L105.308 225.746C105.67 226.006 106.176 225.928 106.438 225.57C106.7 225.213 106.62 224.711 106.259 224.452L100.25 220.118L106.443 216.049C106.817 215.804 106.918 215.308 106.672 214.938C106.425 214.57 105.924 214.47 105.55 214.714Z" stroke="#00BCD4" stroke-width="1.33333"/>
<path d="M112.934 214.714L106.046 219.239C105.83 219.264 105.622 219.373 105.485 219.56C105.372 219.713 105.326 219.892 105.333 220.069C105.318 220.243 105.356 220.424 105.462 220.583C105.591 220.775 105.794 220.893 106.008 220.928L112.691 225.746C113.052 226.007 113.558 225.927 113.819 225.568C114.082 225.213 114.004 224.71 113.643 224.451L107.63 220.118L113.826 216.05C114.199 215.804 114.3 215.308 114.052 214.939C113.807 214.57 113.305 214.47 112.934 214.714Z" fill="#4E4C4F"/>
<path fill-rule="evenodd" clip-rule="evenodd" d="M112.934 214.714L106.046 219.239C105.83 219.264 105.622 219.373 105.485 219.56C105.372 219.713 105.326 219.892 105.333 220.069C105.318 220.243 105.356 220.424 105.462 220.583C105.591 220.775 105.794 220.893 106.008 220.928L112.691 225.746C113.052 226.007 113.558 225.927 113.819 225.568C114.082 225.213 114.004 224.71 113.643 224.451L107.63 220.118L113.826 216.05C114.199 215.804 114.3 215.308 114.052 214.939C113.807 214.57 113.305 214.47 112.934 214.714Z" stroke="#00BCD4" stroke-width="1.33333"/>
<path d="M119.821 214.714L112.934 219.239C112.717 219.264 112.511 219.373 112.374 219.56C112.261 219.714 112.215 219.891 112.223 220.069C112.207 220.243 112.245 220.424 112.351 220.582C112.48 220.777 112.681 220.895 112.898 220.927L119.579 225.746C119.942 226.007 120.448 225.927 120.71 225.57C120.972 225.212 120.892 224.709 120.532 224.451L114.521 220.118L120.716 216.05C121.087 215.804 121.19 215.308 120.943 214.939C120.697 214.57 120.195 214.47 119.821 214.714Z" fill="#4E4C4F"/>
<path fill-rule="evenodd" clip-rule="evenodd" d="M119.821 214.714L112.934 219.239C112.717 219.264 112.511 219.373 112.374 219.56C112.261 219.714 112.215 219.891 112.223 220.069C112.207 220.243 112.245 220.424 112.351 220.582C112.48 220.777 112.681 220.895 112.898 220.927L119.579 225.746C119.942 226.007 120.448 225.927 120.71 225.57C120.972 225.212 120.892 224.709 120.532 224.451L114.521 220.118L120.716 216.05C121.087 215.804 121.19 215.308 120.943 214.939C120.697 214.57 120.195 214.47 119.821 214.714Z" stroke="#00BCD4" stroke-width="1.33333"/>
<path d="M127.205 214.714L120.314 219.238C120.098 219.265 119.894 219.373 119.755 219.561C119.642 219.714 119.595 219.893 119.605 220.069C119.589 220.243 119.627 220.425 119.733 220.583C119.862 220.777 120.062 220.895 120.277 220.928L126.962 225.745C127.322 226.007 127.83 225.927 128.092 225.57C128.354 225.212 128.275 224.71 127.912 224.451L121.903 220.119L128.097 216.05C128.47 215.804 128.571 215.308 128.325 214.939C128.078 214.57 127.575 214.47 127.205 214.714Z" fill="#4E4C4F"/>
<path fill-rule="evenodd" clip-rule="evenodd" d="M127.205 214.714L120.314 219.238C120.098 219.265 119.894 219.373 119.755 219.561C119.642 219.714 119.595 219.893 119.605 220.069C119.589 220.243 119.627 220.425 119.733 220.583C119.862 220.777 120.062 220.895 120.277 220.928L126.962 225.745C127.322 226.007 127.83 225.927 128.092 225.57C128.354 225.212 128.275 224.71 127.912 224.451L121.903 220.119L128.097 216.05C128.47 215.804 128.571 215.308 128.325 214.939C128.078 214.57 127.575 214.47 127.205 214.714Z" stroke="#00BCD4" stroke-width="1.33333"/>
<path d="M32.7161 311.17L25.8273 315.693C25.6107 315.72 25.4067 315.829 25.2682 316.017C25.1565 316.17 25.1104 316.348 25.1171 316.525C25.102 316.699 25.1398 316.88 25.2447 317.038C25.3765 317.232 25.5763 317.349 25.7904 317.384L32.4735 322.202C32.8362 322.462 33.3416 322.383 33.6043 322.026C33.8662 321.669 33.7865 321.167 33.4247 320.907L27.4156 316.574L33.6094 312.505C33.9829 312.26 34.0837 311.764 33.8377 311.394C33.5909 311.026 33.0897 310.925 32.7161 311.17Z" fill="#4E4C4F"/>
<path fill-rule="evenodd" clip-rule="evenodd" d="M32.7161 311.17L25.8273 315.693C25.6107 315.72 25.4067 315.829 25.2682 316.017C25.1565 316.17 25.1104 316.348 25.1171 316.525C25.102 316.699 25.1398 316.88 25.2447 317.038C25.3765 317.232 25.5763 317.349 25.7904 317.384L32.4735 322.202C32.8362 322.462 33.3416 322.383 33.6043 322.026C33.8662 321.669 33.7865 321.167 33.4247 320.907L27.4156 316.574L33.6094 312.505C33.9829 312.26 34.0837 311.764 33.8377 311.394C33.5909 311.026 33.0897 310.925 32.7161 311.17Z" stroke="#00BCD4" stroke-width="1.33333"/>
<path d="M39.608 311.17L32.7195 315.694C32.5038 315.719 32.2956 315.828 32.1588 316.015C32.0463 316.168 32.0001 316.348 32.0068 316.524C31.9917 316.699 32.0303 316.879 32.1361 317.039C32.2654 317.23 32.4677 317.348 32.6817 317.383L39.3646 322.201C39.7255 322.463 40.2317 322.382 40.4928 322.023C40.7564 321.668 40.6775 321.166 40.3165 320.906L34.3044 316.573L40.5004 312.505C40.8731 312.26 40.9738 311.764 40.7262 311.394C40.4811 311.026 39.9791 310.925 39.608 311.17Z" fill="#4E4C4F"/>
<path fill-rule="evenodd" clip-rule="evenodd" d="M39.608 311.17L32.7195 315.694C32.5038 315.719 32.2956 315.828 32.1588 316.015C32.0463 316.168 32.0001 316.348 32.0068 316.524C31.9917 316.699 32.0303 316.879 32.1361 317.039C32.2654 317.23 32.4677 317.348 32.6817 317.383L39.3646 322.201C39.7255 322.463 40.2317 322.382 40.4928 322.023C40.7564 321.668 40.6775 321.166 40.3165 320.906L34.3044 316.573L40.5004 312.505C40.8731 312.26 40.9738 311.764 40.7262 311.394C40.4811 311.026 39.9791 310.925 39.608 311.17Z" stroke="#00BCD4" stroke-width="1.33333"/>
<path d="M46.9875 311.17L40.1 315.694C39.8834 315.72 39.6769 315.829 39.5401 316.016C39.4267 316.17 39.3814 316.347 39.389 316.525C39.373 316.699 39.4116 316.88 39.5174 317.038C39.6459 317.233 39.8473 317.351 40.0639 317.382L46.7448 322.202C47.1084 322.462 47.6137 322.382 47.8757 322.026C48.1384 321.667 48.0578 321.165 47.6977 320.906L41.6876 316.574L47.8824 312.505C48.2535 312.26 48.3559 311.764 48.1091 311.394C47.8631 311.026 47.361 310.925 46.9875 311.17Z" fill="#4E4C4F"/>
<path fill-rule="evenodd" clip-rule="evenodd" d="M46.9875 311.17L40.1 315.694C39.8834 315.72 39.6769 315.829 39.5401 316.016C39.4267 316.17 39.3814 316.347 39.389 316.525C39.373 316.699 39.4116 316.88 39.5174 317.038C39.6459 317.233 39.8473 317.351 40.0639 317.382L46.7448 322.202C47.1084 322.462 47.6137 322.382 47.8757 322.026C48.1384 321.667 48.0578 321.165 47.6977 320.906L41.6876 316.574L47.8824 312.505C48.2535 312.26 48.3559 311.764 48.1091 311.394C47.8631 311.026 47.361 310.925 46.9875 311.17Z" stroke="#00BCD4" stroke-width="1.33333"/>
<path d="M54.3712 311.17L47.4802 315.694C47.2636 315.72 47.0596 315.829 46.9211 316.016C46.8086 316.169 46.7616 316.349 46.7708 316.525C46.7549 316.699 46.7927 316.88 46.8993 317.038C47.0286 317.233 47.2284 317.351 47.4433 317.384L54.1277 322.201C54.4879 322.463 54.9958 322.383 55.2577 322.026C55.5197 321.668 55.4408 321.165 55.0781 320.907L49.0687 316.574L55.2628 312.506C55.6364 312.26 55.7371 311.764 55.4911 311.395C55.2443 311.026 54.7414 310.925 54.3712 311.17Z" fill="#4E4C4F"/>
<path fill-rule="evenodd" clip-rule="evenodd" d="M54.3712 311.17L47.4802 315.694C47.2636 315.72 47.0596 315.829 46.9211 316.016C46.8086 316.169 46.7616 316.349 46.7708 316.525C46.7549 316.699 46.7927 316.88 46.8993 317.038C47.0286 317.233 47.2284 317.351 47.4433 317.384L54.1277 322.201C54.4879 322.463 54.9958 322.383 55.2577 322.026C55.5197 321.668 55.4408 321.165 55.0781 320.907L49.0687 316.574L55.2628 312.506C55.6364 312.26 55.7371 311.764 55.4911 311.395C55.2443 311.026 54.7414 310.925 54.3712 311.17Z" stroke="#00BCD4" stroke-width="1.33333"/>
<path fill-rule="evenodd" clip-rule="evenodd" d="M473.595 155.231C473.004 153.695 472.679 152.033 472.679 150.295C472.679 142.632 478.939 136.422 486.664 136.422C492.929 136.422 498.23 140.511 500.007 146.148C501.66 143.834 504.38 142.324 507.456 142.324C512.5 142.324 516.586 146.379 516.586 151.38C516.586 152.687 516.305 153.928 515.8 155.053H520.906C524.352 155.053 527.144 157.823 527.144 161.244C527.144 164.657 524.352 167.43 520.906 167.43H475.081C471.637 167.43 468.844 164.657 468.844 161.244C468.844 158.333 470.868 155.893 473.595 155.231Z" stroke="#00BCD4" stroke-width="1.33333"/>
<path d="M75.3103 63.0073L43.3224 63.0073V62.023L75.3103 62.023V63.0073Z" fill="#4E4C4F"/>
<path d="M116.649 63.0073L84.6606 63.0073V62.023L116.649 62.023V63.0073Z" fill="#4E4C4F"/>
<path d="M125.507 63.0073H122.554V62.023H125.507V63.0073Z" fill="#4E4C4F"/>
<path d="M149.128 56.0473L131.584 47.5535V64.4499H131.772H166.484H166.631V47.5729L149.128 56.0473Z" fill="#FFA000"/>
<path fill-rule="evenodd" clip-rule="evenodd" d="M149.128 56.0473L131.584 47.5535V64.4499H131.772H166.484H166.631V47.5729L149.128 56.0473Z" stroke="#4E4C4F" stroke-width="4" stroke-linecap="square" stroke-linejoin="round"/>
<path d="M166.845 47.4733V47.4442H131.798V47.4537L149.342 61.774L166.845 47.4733Z" fill="#FFA000"/>
<path fill-rule="evenodd" clip-rule="evenodd" d="M166.845 47.4733V47.4442H131.798V47.4537L149.342 61.774L166.845 47.4733Z" stroke="#4E4C4F" stroke-width="4" stroke-linecap="square" stroke-linejoin="round"/>
<path d="M61.5309 116.861H36.1292L36.1292 140.914H42.3331L40.9307 149.105L47.1705 140.914H61.5309V116.861Z" fill="#00BCD4"/>
<path d="M47.7068 132.396C47.3608 132.396 47.0327 132.256 46.7913 132.007L44.7181 129.871C44.237 129.373 44.2565 128.586 44.7614 128.111C45.2689 127.64 46.0654 127.657 46.5465 128.153L47.6328 129.278L51.2999 124.879C51.7402 124.347 52.5392 124.269 53.0764 124.704C53.6187 125.14 53.6935 125.923 53.2515 126.453L48.6826 131.939C48.4531 132.216 48.114 132.379 47.7552 132.391C47.7391 132.396 47.7221 132.396 47.7068 132.396Z" fill="#4E4C4F"/>
<path d="M84.7262 266.992L66.3353 257.11V276.877L84.7262 266.992L66.3353 257.11V276.877L84.7262 266.992Z" fill="#C55774"/>
<path d="M467.039 83.6764L529.046 83.6764V81.7079L467.039 81.7079V83.6764Z" fill="#4E4C4F"/>
<path d="M349.914 97.9479H353.359V101.393H349.914V97.9479Z" fill="#4E4C4F"/>
<path d="M342.04 97.9479H345.485V101.393H342.04V97.9479Z" fill="#4E4C4F"/>
<path d="M334.658 97.9479H338.103V101.393H334.658V97.9479Z" fill="#4E4C4F"/>
<path d="M326.784 97.9479H330.229V101.393H326.784V97.9479Z" fill="#4E4C4F"/>
<path d="M318.91 97.9479H322.355V101.393H318.91V97.9479Z" fill="#4E4C4F"/>
<path d="M311.036 97.9479H314.481V101.393H311.036V97.9479Z" fill="#4E4C4F"/>
<path d="M303.162 97.9479H306.607V101.393H303.162V97.9479Z" fill="#4E4C4F"/>
<path d="M295.288 97.9479H298.733V101.393H295.288V97.9479Z" fill="#4E4C4F"/>
<path d="M287.415 97.9479H290.859V101.393H287.415V97.9479Z" fill="#4E4C4F"/>
<path d="M279.541 97.9479H282.985V101.393H279.541V97.9479Z" fill="#4E4C4F"/>
<path d="M271.667 97.9479H275.111V101.393H271.667V97.9479Z" fill="#4E4C4F"/>
<path d="M263.793 97.9479H267.238V101.393H263.793V97.9479Z" fill="#4E4C4F"/>
<path d="M255.919 97.9479H259.364V101.393H255.919V97.9479Z" fill="#4E4C4F"/>
<path d="M312.582 30.7376L274.086 30.7376V48.618H298.284L297.237 54.706L301.886 48.618L312.582 48.618V30.7376Z" fill="#00BCD4"/>
<path d="M309.068 41.3539L277.572 41.3539V42.8303L309.068 42.8303V41.3539Z" fill="#4E4C4F"/>
<path d="M298.241 35.9406H277.572V37.417H298.241V35.9406Z" fill="#4E4C4F"/>
<path d="M423.486 61.2849C423.622 61.1513 423.755 61.0184 423.894 60.887C423.807 60.9697 423.696 61.0797 423.486 61.2849Z" fill="white"/>
<path d="M475.159 105.576L475.165 105.567C475.162 105.571 475.157 105.575 475.154 105.579L475.154 105.579C475.154 105.579 475.156 105.579 475.159 105.576Z" fill="white"/>
<path d="M435.051 82.4461C435.051 90.9018 428.118 97.7581 419.567 97.7581C411.017 97.7581 404.084 90.9018 404.084 82.4461C404.084 73.9895 411.017 67.134 419.567 67.134C428.118 67.134 435.051 73.9895 435.051 82.4461Z" fill="white"/>
<path d="M389.851 367.63H374.511V352.901H378.259L377.412 347.885L381.179 352.901H389.851V367.63Z" fill="#95CD8B"/>
<path d="M381.426 358.067C381.216 358.067 381.017 358.155 380.872 358.309L379.615 359.637C379.324 359.946 379.336 360.436 379.641 360.731C379.948 361.024 380.431 361.013 380.723 360.706L381.382 360.005L383.604 362.74C383.871 363.07 384.354 363.118 384.68 362.849C385.009 362.577 385.054 362.091 384.786 361.762L382.017 358.352C381.878 358.179 381.673 358.078 381.455 358.071C381.446 358.067 381.435 358.067 381.426 358.067Z" fill="#4E4C4F"/>
<path fill-rule="evenodd" clip-rule="evenodd" d="M73.834 19.7006H135.841V21.6691H73.834V19.7006Z" stroke="#00BCD4" stroke-width="1.33333"/>
<path fill-rule="evenodd" clip-rule="evenodd" d="M94.9951 13.303H135.841V15.2715H94.9951V13.303Z" stroke="#00BCD4" stroke-width="1.33333"/>
<path fill-rule="evenodd" clip-rule="evenodd" d="M51.1964 2.96848H53.1649V1H51.1964V2.96848Z" stroke="#00BCD4" stroke-width="1.33333"/>
<path fill-rule="evenodd" clip-rule="evenodd" d="M46.7673 2.96848H48.7358V1H46.7673V2.96848Z" stroke="#00BCD4" stroke-width="1.33333"/>
<path fill-rule="evenodd" clip-rule="evenodd" d="M42.8303 2.96848H44.7988V1H42.8303V2.96848Z" stroke="#00BCD4" stroke-width="1.33333"/>
<path fill-rule="evenodd" clip-rule="evenodd" d="M38.4012 2.96848H40.3697V1H38.4012V2.96848Z" stroke="#00BCD4" stroke-width="1.33333"/>
<path fill-rule="evenodd" clip-rule="evenodd" d="M34.4642 2.96848H36.4327V1H34.4642V2.96848Z" stroke="#00BCD4" stroke-width="1.33333"/>
<path fill-rule="evenodd" clip-rule="evenodd" d="M30.0352 2.96848H32.0036V1H30.0352V2.96848Z" stroke="#00BCD4" stroke-width="1.33333"/>
<path fill-rule="evenodd" clip-rule="evenodd" d="M26.0981 2.96848H28.0666V1H26.0981V2.96848Z" stroke="#00BCD4" stroke-width="1.33333"/>
<path fill-rule="evenodd" clip-rule="evenodd" d="M21.6691 2.96848H23.6376V1H21.6691V2.96848Z" stroke="#00BCD4" stroke-width="1.33333"/>
<path fill-rule="evenodd" clip-rule="evenodd" d="M17.7322 2.96848H19.7007V1H17.7322V2.96848Z" stroke="#00BCD4" stroke-width="1.33333"/>
<path fill-rule="evenodd" clip-rule="evenodd" d="M13.303 2.96848H15.2715V1H13.303L13.303 2.96848Z" stroke="#00BCD4" stroke-width="1.33333"/>
<path fill-rule="evenodd" clip-rule="evenodd" d="M9.36609 2.96848H11.3346V1H9.36609V2.96848Z" stroke="#00BCD4" stroke-width="1.33333"/>
<path fill-rule="evenodd" clip-rule="evenodd" d="M4.93701 2.96848H6.9055V1H4.93701V2.96848Z" stroke="#00BCD4" stroke-width="1.33333"/>
<path fill-rule="evenodd" clip-rule="evenodd" d="M1 2.96848H2.96848V1H1V2.96848Z" stroke="#00BCD4" stroke-width="1.33333"/>
<mask id="mask2_1_2" style="mask-type:luminance" maskUnits="userSpaceOnUse" x="404" y="67" width="32" height="31">
<path fill-rule="evenodd" clip-rule="evenodd" d="M435.423 82.4005C435.423 90.8748 428.552 97.7462 420.078 97.7462C411.603 97.7462 404.733 90.8748 404.733 82.4005C404.733 73.9253 411.603 67.0548 420.078 67.0548C428.552 67.0548 435.423 73.9253 435.423 82.4005" fill="white"/>
</mask>
<g mask="url(#mask2_1_2)">
<path d="M414.368 79.5337C414.368 82.6873 416.924 85.2443 420.078 85.2443C423.231 85.2443 425.787 82.6873 425.787 79.5337C425.787 76.3802 423.231 73.824 420.078 73.824C416.924 73.824 414.368 76.3802 414.368 79.5337Z" fill="white"/>
<path fill-rule="evenodd" clip-rule="evenodd" d="M414.368 79.5337C414.368 82.6873 416.924 85.2443 420.078 85.2443C423.231 85.2443 425.787 82.6873 425.787 79.5337C425.787 76.3802 423.231 73.824 420.078 73.824C416.924 73.824 414.368 76.3802 414.368 79.5337Z" stroke="#4E4C4F" stroke-width="4"/>
<path d="M410.086 106.022C410.086 108.913 412.428 111.257 415.322 111.257H424.836C427.727 111.257 430.071 108.913 430.071 106.022V90.4401C430.071 87.5498 427.727 85.2062 424.836 85.2062H415.322C412.428 85.2062 410.086 87.5498 410.086 90.4401V106.022Z" fill="white"/>
<path fill-rule="evenodd" clip-rule="evenodd" d="M410.086 106.022C410.086 108.913 412.428 111.257 415.322 111.257H424.836C427.727 111.257 430.071 108.913 430.071 106.022V90.4401C430.071 87.5498 427.727 85.2062 424.836 85.2062H415.322C412.428 85.2062 410.086 87.5498 410.086 90.4401V106.022Z" stroke="#4E4C4F" stroke-width="4"/>
<path d="M425.432 90.3801V108.403V90.3801Z" fill="white"/>
<path d="M425.432 90.3801V108.403" stroke="#4E4C4F" stroke-width="4"/>
<path d="M414.726 90.3801V108.403V90.3801Z" fill="white"/>
<path d="M414.726 90.3801V108.403" stroke="#4E4C4F" stroke-width="4"/>
</g>
</svg>
